{
    "patcher": {
        "fileversion": 1,
        "appversion": {
            "major": 9,
            "minor": 1,
            "revision": 1,
            "architecture": "x64",
            "modernui": 1
        },
        "classnamespace": "box",
        "rect": [ -1886.0, 77.0, 1391.0, 969.0 ],
        "boxes": [
            {
                "box": {
                    "id": "obj-98",
                    "maxclass": "newobj",
                    "numinlets": 1,
                    "numoutlets": 0,
                    "patching_rect": [ 1501.0, 675.0, 63.0, 22.0 ],
                    "text": "print other"
                }
            },
            {
                "box": {
                    "id": "obj-93",
                    "maxclass": "dict.view",
                    "numinlets": 1,
                    "numoutlets": 0,
                    "patching_rect": [ 1010.0, 738.0, 298.0, 851.0 ]
                }
            },
            {
                "box": {
                    "id": "obj-92",
                    "maxclass": "newobj",
                    "numinlets": 1,
                    "numoutlets": 0,
                    "patching_rect": [ 1403.0, 675.0, 90.0, 22.0 ],
                    "text": "print osc_count"
                }
            },
            {
                "box": {
                    "id": "obj-90",
                    "maxclass": "newobj",
                    "numinlets": 1,
                    "numoutlets": 0,
                    "patching_rect": [ 1297.0, 675.0, 88.0, 22.0 ],
                    "text": "print varnames"
                }
            },
            {
                "box": {
                    "id": "obj-87",
                    "maxclass": "newobj",
                    "numinlets": 4,
                    "numoutlets": 4,
                    "outlettype": [ "", "", "", "" ],
                    "patching_rect": [ 1204.0, 630.0, 200.0, 22.0 ],
                    "text": "route objectlist varnames osc_count"
                }
            },
            {
                "box": {
                    "id": "obj-86",
                    "maxclass": "newobj",
                    "numinlets": 1,
                    "numoutlets": 0,
                    "patching_rect": [ 1440.0, 635.0, 64.0, 22.0 ],
                    "text": "print detail"
                }
            },
            {
                "box": {
                    "filename": "presentation-scanner.js",
                    "id": "obj-84",
                    "maxclass": "newobj",
                    "numinlets": 1,
                    "numoutlets": 2,
                    "outlettype": [ "", "" ],
                    "patching_rect": [ 1213.0, 557.0, 217.0, 22.0 ],
                    "saved_object_attributes": {
                        "parameter_enable": 0
                    },
                    "text": "v8 presentation-scanner @autowatch 1",
                    "textfile": {
                        "filename": "presentation-scanner.js",
                        "flags": 0,
                        "embed": 0,
                        "autowatch": 1
                    }
                }
            },
            {
                "box": {
                    "id": "obj-74",
                    "maxclass": "live.tab",
                    "num_lines_patching": 1,
                    "num_lines_presentation": 0,
                    "numinlets": 1,
                    "numoutlets": 3,
                    "outlettype": [ "", "", "float" ],
                    "parameter_enable": 1,
                    "patching_rect": [ 1855.0, 514.0, 100.0, 20.0 ],
                    "presentation": 1,
                    "presentation_rect": [ 1585.0, 518.5, 100.0, 20.0 ],
                    "saved_attribute_attributes": {
                        "valueof": {
                            "parameter_enum": [ "one", "two", "three" ],
                            "parameter_longname": "live.tab",
                            "parameter_mmax": 2,
                            "parameter_modmode": 0,
                            "parameter_shortname": "live.tab",
                            "parameter_type": 2,
                            "parameter_unitstyle": 9
                        }
                    },
                    "varname": "live.tab"
                }
            },
            {
                "box": {
                    "id": "obj-68",
                    "maxclass": "live.toggle",
                    "numinlets": 1,
                    "numoutlets": 1,
                    "outlettype": [ "" ],
                    "parameter_enable": 1,
                    "patching_rect": [ 1803.0, 562.0, 15.0, 15.0 ],
                    "presentation": 1,
                    "presentation_rect": [ 1533.0, 567.3170866966248, 15.0, 15.0 ],
                    "saved_attribute_attributes": {
                        "valueof": {
                            "parameter_enum": [ "off", "on" ],
                            "parameter_longname": "live.toggle",
                            "parameter_mmax": 1,
                            "parameter_modmode": 0,
                            "parameter_shortname": "live.toggle",
                            "parameter_type": 2
                        }
                    },
                    "varname": "live.toggle"
                }
            },
            {
                "box": {
                    "id": "obj-67",
                    "maxclass": "live.slider",
                    "numinlets": 1,
                    "numoutlets": 2,
                    "outlettype": [ "", "float" ],
                    "parameter_enable": 1,
                    "patching_rect": [ 1846.0, 413.0, 39.0, 95.0 ],
                    "presentation": 1,
                    "presentation_rect": [ 1576.0, 418.0, 39.0, 95.0 ],
                    "saved_attribute_attributes": {
                        "valueof": {
                            "parameter_longname": "live.slider",
                            "parameter_modmode": 3,
                            "parameter_shortname": "live.slider",
                            "parameter_type": 0,
                            "parameter_unitstyle": 0
                        }
                    },
                    "varname": "live.slider"
                }
            },
            {
                "box": {
                    "id": "obj-66",
                    "maxclass": "comment",
                    "numinlets": 1,
                    "numoutlets": 0,
                    "patching_rect": [ 1653.0, 558.0, 92.0, 20.0 ],
                    "text": "toggle",
                    "textjustification": 2
                }
            },
            {
                "box": {
                    "id": "obj-65",
                    "maxclass": "live.text",
                    "numinlets": 1,
                    "numoutlets": 2,
                    "outlettype": [ "", "" ],
                    "parameter_enable": 1,
                    "patching_rect": [ 1753.0, 562.0, 44.0, 15.0 ],
                    "presentation": 1,
                    "presentation_rect": [ 1483.0, 567.3170866966248, 44.0, 15.0 ],
                    "saved_attribute_attributes": {
                        "valueof": {
                            "parameter_enum": [ "val1", "val2" ],
                            "parameter_longname": "live.text",
                            "parameter_mmax": 1,
                            "parameter_modmode": 0,
                            "parameter_shortname": "live.text",
                            "parameter_type": 2
                        }
                    },
                    "varname": "live.text"
                }
            },
            {
                "box": {
                    "id": "obj-64",
                    "maxclass": "live.dial",
                    "numinlets": 1,
                    "numoutlets": 2,
                    "outlettype": [ "", "float" ],
                    "parameter_enable": 1,
                    "patching_rect": [ 1803.0, 460.0, 41.0, 48.0 ],
                    "presentation": 1,
                    "presentation_rect": [ 1533.0, 465.0, 41.0, 48.0 ],
                    "saved_attribute_attributes": {
                        "valueof": {
                            "parameter_longname": "live.dial",
                            "parameter_modmode": 3,
                            "parameter_shortname": "live.dial",
                            "parameter_type": 0,
                            "parameter_unitstyle": 0
                        }
                    },
                    "varname": "live.dial"
                }
            },
            {
                "box": {
                    "id": "obj-62",
                    "maxclass": "comment",
                    "numinlets": 1,
                    "numoutlets": 0,
                    "patching_rect": [ 1653.0, 535.0, 92.0, 20.0 ],
                    "text": "button",
                    "textjustification": 2
                }
            },
            {
                "box": {
                    "id": "obj-61",
                    "maxclass": "live.button",
                    "numinlets": 1,
                    "numoutlets": 1,
                    "outlettype": [ "" ],
                    "parameter_enable": 1,
                    "patching_rect": [ 1753.0, 538.0, 15.0, 15.0 ],
                    "presentation": 1,
                    "presentation_rect": [ 1483.0, 542.5, 15.0, 15.0 ],
                    "saved_attribute_attributes": {
                        "valueof": {
                            "parameter_enum": [ "off", "on" ],
                            "parameter_longname": "live.button",
                            "parameter_mmax": 1,
                            "parameter_modmode": 0,
                            "parameter_shortname": "live.button",
                            "parameter_type": 2
                        }
                    },
                    "varname": "live.button"
                }
            },
            {
                "box": {
                    "id": "obj-60",
                    "maxclass": "comment",
                    "numinlets": 1,
                    "numoutlets": 0,
                    "patching_rect": [ 1653.0, 511.0, 92.0, 20.0 ],
                    "text": "menu",
                    "textjustification": 2
                }
            },
            {
                "box": {
                    "id": "obj-59",
                    "maxclass": "comment",
                    "numinlets": 1,
                    "numoutlets": 0,
                    "patching_rect": [ 1653.0, 488.0, 92.0, 20.0 ],
                    "text": "num 0-127",
                    "textjustification": 2
                }
            },
            {
                "box": {
                    "id": "obj-17",
                    "maxclass": "newobj",
                    "numinlets": 1,
                    "numoutlets": 0,
                    "patching_rect": [ 1204.0, 675.0, 82.0, 22.0 ],
                    "text": "print objectlist"
                }
            },
            {
                "box": {
                    "id": "obj-49",
                    "maxclass": "live.menu",
                    "numinlets": 1,
                    "numoutlets": 3,
                    "outlettype": [ "", "", "float" ],
                    "parameter_enable": 1,
                    "patching_rect": [ 1753.0, 516.0, 100.0, 15.0 ],
                    "presentation": 1,
                    "presentation_rect": [ 618.0, 90.0, 100.0, 15.0 ],
                    "saved_attribute_attributes": {
                        "valueof": {
                            "parameter_enum": [ "one", "two", "three" ],
                            "parameter_longname": "live.menu",
                            "parameter_mmax": 2,
                            "parameter_modmode": 0,
                            "parameter_shortname": "live.menu",
                            "parameter_type": 2
                        }
                    },
                    "varname": "Element"
                }
            },
            {
                "box": {
                    "id": "obj-50",
                    "maxclass": "button",
                    "numinlets": 1,
                    "numoutlets": 1,
                    "outlettype": [ "bang" ],
                    "parameter_enable": 0,
                    "patching_rect": [ 1213.0, 507.0, 24.0, 24.0 ]
                }
            },
            {
                "box": {
                    "id": "obj-53",
                    "maxclass": "live.numbox",
                    "numinlets": 1,
                    "numoutlets": 2,
                    "outlettype": [ "", "float" ],
                    "parameter_enable": 1,
                    "patching_rect": [ 1753.0, 493.0, 44.0, 15.0 ],
                    "presentation": 1,
                    "presentation_rect": [ 396.0, 108.0, 44.0, 15.0 ],
                    "saved_attribute_attributes": {
                        "valueof": {
                            "parameter_longname": "live.numbox",
                            "parameter_modmode": 3,
                            "parameter_shortname": "live.numbox",
                            "parameter_type": 0,
                            "parameter_unitstyle": 0
                        }
                    },
                    "varname": "Data"
                }
            },
            {
                "box": {
                    "id": "obj-25",
                    "maxclass": "button",
                    "numinlets": 1,
                    "numoutlets": 1,
                    "outlettype": [ "bang" ],
                    "parameter_enable": 0,
                    "patching_rect": [ 544.0, 413.0, 24.0, 24.0 ]
                }
            },
            {
                "box": {
                    "id": "obj-19",
                    "linecount": 3,
                    "maxclass": "message",
                    "numinlets": 2,
                    "numoutlets": 1,
                    "outlettype": [ "" ],
                    "patching_rect": [ 579.0, 413.0, 113.0, 50.0 ],
                    "text": "\"Connection error: HTTP 404: Not found\""
                }
            },
            {
                "box": {
                    "id": "obj-14",
                    "maxclass": "message",
                    "numinlets": 2,
                    "numoutlets": 1,
                    "outlettype": [ "" ],
                    "patching_rect": [ 358.5, 179.0, 219.49999284744263, 22.0 ],
                    "text": "connect http://unityoscquery.local:9010/"
                }
            },
            {
                "box": {
                    "id": "obj-4",
                    "maxclass": "message",
                    "numinlets": 2,
                    "numoutlets": 1,
                    "outlettype": [ "" ],
                    "patching_rect": [ 358.5, 71.5, 161.0, 22.0 ],
                    "text": "connect http://localhost:5678"
                }
            },
            {
                "box": {
                    "id": "obj-3",
                    "maxclass": "newobj",
                    "numinlets": 1,
                    "numoutlets": 1,
                    "outlettype": [ "bang" ],
                    "patching_rect": [ 60.0, 179.0, 58.0, 22.0 ],
                    "text": "loadbang"
                }
            },
            {
                "box": {
                    "id": "obj-96",
                    "maxclass": "newobj",
                    "numinlets": 1,
                    "numoutlets": 1,
                    "outlettype": [ "bang" ],
                    "patching_rect": [ 138.0, 179.0, 58.0, 22.0 ],
                    "text": "loadbang"
                }
            },
            {
                "box": {
                    "id": "obj-95",
                    "maxclass": "message",
                    "numinlets": 2,
                    "numoutlets": 1,
                    "outlettype": [ "" ],
                    "patching_rect": [ 138.0, 212.0, 98.0, 22.0 ],
                    "text": "script npm install"
                }
            },
            {
                "box": {
                    "id": "obj-91",
                    "maxclass": "newobj",
                    "numinlets": 2,
                    "numoutlets": 1,
                    "outlettype": [ "float" ],
                    "patching_rect": [ 1348.0, 119.0, 39.0, 22.0 ],
                    "text": "/ 100."
                }
            },
            {
                "box": {
                    "id": "obj-89",
                    "maxclass": "number",
                    "numinlets": 1,
                    "numoutlets": 2,
                    "outlettype": [ "", "bang" ],
                    "parameter_enable": 0,
                    "patching_rect": [ 1349.0, 83.0, 50.0, 22.0 ]
                }
            },
            {
                "box": {
                    "id": "obj-88",
                    "maxclass": "message",
                    "numinlets": 2,
                    "numoutlets": 1,
                    "outlettype": [ "" ],
                    "patching_rect": [ 1349.0, 163.0, 218.0, 22.0 ],
                    "text": "Red_Cube/Transform/position $1 $1 $1"
                }
            },
            {
                "box": {
                    "id": "obj-5",
                    "maxclass": "message",
                    "numinlets": 2,
                    "numoutlets": 1,
                    "outlettype": [ "" ],
                    "patching_rect": [ 140.0, 90.0, 106.0, 22.0 ],
                    "text": "script npm version"
                }
            },
            {
                "box": {
                    "id": "obj-48",
                    "maxclass": "message",
                    "numinlets": 2,
                    "numoutlets": 1,
                    "outlettype": [ "" ],
                    "patching_rect": [ 1698.0, 314.0, 196.0, 22.0 ],
                    "text": "my_effect1/Controls/Myxy $1 $1 $1"
                }
            },
            {
                "box": {
                    "id": "obj-46",
                    "maxclass": "message",
                    "numinlets": 2,
                    "numoutlets": 1,
                    "outlettype": [ "" ],
                    "patching_rect": [ 1901.0, 314.0, 126.0, 22.0 ],
                    "text": "badpath/badparam $1"
                }
            },
            {
                "box": {
                    "id": "obj-41",
                    "maxclass": "message",
                    "numinlets": 2,
                    "numoutlets": 1,
                    "outlettype": [ "" ],
                    "patching_rect": [ 1533.0, 314.0, 163.0, 22.0 ],
                    "text": "my_effect1/Controls/Myxy $1"
                }
            },
            {
                "box": {
                    "id": "obj-37",
                    "maxclass": "comment",
                    "numinlets": 1,
                    "numoutlets": 0,
                    "patching_rect": [ 1533.0, 263.0, 150.0, 20.0 ],
                    "text": "BAD VALUES"
                }
            },
            {
                "box": {
                    "id": "obj-51",
                    "maxclass": "message",
                    "numinlets": 2,
                    "numoutlets": 1,
                    "outlettype": [ "" ],
                    "patching_rect": [ 1349.0, 315.0, 174.0, 22.0 ],
                    "text": "my_effect1/Controls/Myfloat $1"
                }
            },
            {
                "box": {
                    "id": "obj-32",
                    "maxclass": "newobj",
                    "numinlets": 1,
                    "numoutlets": 1,
                    "outlettype": [ "" ],
                    "patching_rect": [ 765.0, 221.0, 82.0, 22.0 ],
                    "text": "prepend send"
                }
            },
            {
                "box": {
                    "id": "obj-21",
                    "maxclass": "newobj",
                    "numinlets": 1,
                    "numoutlets": 0,
                    "patching_rect": [ 1165.0, 378.0, 55.0, 22.0 ],
                    "text": "s sender"
                }
            },
            {
                "box": {
                    "id": "obj-13",
                    "maxclass": "newobj",
                    "numinlets": 0,
                    "numoutlets": 1,
                    "outlettype": [ "" ],
                    "patching_rect": [ 765.0, 179.0, 53.0, 22.0 ],
                    "text": "r sender"
                }
            },
            {
                "box": {
                    "id": "obj-16",
                    "maxclass": "message",
                    "numinlets": 2,
                    "numoutlets": 1,
                    "outlettype": [ "" ],
                    "patching_rect": [ 580.0, 145.0, 111.0, 22.0 ],
                    "text": "update_mode false"
                }
            },
            {
                "box": {
                    "id": "obj-9",
                    "maxclass": "message",
                    "numinlets": 2,
                    "numoutlets": 1,
                    "outlettype": [ "" ],
                    "patching_rect": [ 580.0, 109.0, 106.0, 22.0 ],
                    "text": "update_mode true"
                }
            },
            {
                "box": {
                    "id": "obj-7",
                    "maxclass": "message",
                    "numinlets": 2,
                    "numoutlets": 1,
                    "outlettype": [ "" ],
                    "patching_rect": [ 383.0, 212.0, 66.0, 22.0 ],
                    "text": "disconnect"
                }
            },
            {
                "box": {
                    "id": "obj-2",
                    "maxclass": "message",
                    "numinlets": 2,
                    "numoutlets": 1,
                    "outlettype": [ "" ],
                    "patching_rect": [ 358.5, 145.0, 190.0, 22.0 ],
                    "text": "connect http://192.168.1.118:9010"
                }
            },
            {
                "box": {
                    "id": "obj-8",
                    "maxclass": "message",
                    "numinlets": 2,
                    "numoutlets": 1,
                    "outlettype": [ "" ],
                    "patching_rect": [ 1165.0, 315.0, 180.0, 22.0 ],
                    "text": "my_effect1/Controls/Myxy $1 $1"
                }
            },
            {
                "box": {
                    "id": "obj-56",
                    "maxclass": "dict.view",
                    "numinlets": 1,
                    "numoutlets": 0,
                    "patching_rect": [ 631.0, 644.0, 248.0, 49.0 ]
                }
            },
            {
                "box": {
                    "fontname": "Arial",
                    "fontsize": 13.0,
                    "id": "obj-31",
                    "maxclass": "message",
                    "numinlets": 2,
                    "numoutlets": 1,
                    "outlettype": [ "" ],
                    "patching_rect": [ 1210.0, 185.0, 41.0, 23.0 ],
                    "text": "reset"
                }
            },
            {
                "box": {
                    "fontname": "Arial",
                    "fontsize": 13.0,
                    "id": "obj-18",
                    "maxclass": "number",
                    "numinlets": 1,
                    "numoutlets": 2,
                    "outlettype": [ "", "bang" ],
                    "parameter_enable": 0,
                    "patching_rect": [ 1165.0, 268.0, 53.0, 23.0 ]
                }
            },
            {
                "box": {
                    "id": "obj-26",
                    "maxclass": "toggle",
                    "numinlets": 1,
                    "numoutlets": 1,
                    "outlettype": [ "int" ],
                    "parameter_enable": 0,
                    "patching_rect": [ 1165.0, 32.0, 20.0, 20.0 ]
                }
            },
            {
                "box": {
                    "fontname": "Arial",
                    "fontsize": 13.0,
                    "id": "obj-27",
                    "maxclass": "newobj",
                    "numinlets": 2,
                    "numoutlets": 1,
                    "outlettype": [ "float" ],
                    "patching_rect": [ 1165.0, 240.0, 75.0, 23.0 ],
                    "text": "clocker 100"
                }
            },
            {
                "box": {
                    "id": "obj-11",
                    "maxclass": "button",
                    "numinlets": 1,
                    "numoutlets": 1,
                    "outlettype": [ "bang" ],
                    "parameter_enable": 0,
                    "patching_rect": [ 1210.0, 146.0, 20.0, 20.0 ]
                }
            },
            {
                "box": {
                    "fontname": "Arial",
                    "fontsize": 13.0,
                    "id": "obj-20",
                    "maxclass": "newobj",
                    "numinlets": 2,
                    "numoutlets": 1,
                    "outlettype": [ "bang" ],
                    "patching_rect": [ 1210.0, 71.0, 104.0, 23.0 ],
                    "text": "metro 500"
                }
            },
            {
                "box": {
                    "id": "obj-47",
                    "maxclass": "dict.view",
                    "numinlets": 1,
                    "numoutlets": 0,
                    "patching_rect": [ 258.0, 710.0, 416.0, 622.0 ]
                }
            },
            {
                "box": {
                    "id": "obj-45",
                    "maxclass": "newobj",
                    "numinlets": 1,
                    "numoutlets": 0,
                    "patching_rect": [ 509.0, 599.0, 106.0, 22.0 ],
                    "text": "print disconnected"
                }
            },
            {
                "box": {
                    "id": "obj-44",
                    "maxclass": "newobj",
                    "numinlets": 1,
                    "numoutlets": 0,
                    "patching_rect": [ 626.0, 599.0, 69.0, 22.0 ],
                    "text": "print others"
                }
            },
            {
                "box": {
                    "id": "obj-43",
                    "maxclass": "newobj",
                    "numinlets": 1,
                    "numoutlets": 0,
                    "patching_rect": [ 343.0, 599.0, 78.0, 22.0 ],
                    "text": "print change:"
                }
            },
            {
                "box": {
                    "id": "obj-42",
                    "maxclass": "newobj",
                    "numinlets": 1,
                    "numoutlets": 0,
                    "patching_rect": [ 437.0, 599.0, 61.0, 22.0 ],
                    "text": "print state"
                }
            },
            {
                "box": {
                    "id": "obj-40",
                    "maxclass": "newobj",
                    "numinlets": 6,
                    "numoutlets": 6,
                    "outlettype": [ "", "", "", "", "", "" ],
                    "patching_rect": [ 323.0, 524.0, 232.0, 22.0 ],
                    "text": "route param change state disconnect sent"
                }
            },
            {
                "box": {
                    "id": "obj-38",
                    "maxclass": "message",
                    "numinlets": 2,
                    "numoutlets": 1,
                    "outlettype": [ "" ],
                    "patching_rect": [ 692.5, 179.0, 55.0, 22.0 ],
                    "text": "ping"
                }
            },
            {
                "box": {
                    "id": "obj-36",
                    "maxclass": "message",
                    "numinlets": 2,
                    "numoutlets": 1,
                    "outlettype": [ "" ],
                    "patching_rect": [ 343.0, 31.0, 84.0, 22.0 ],
                    "text": "autoconnect 1"
                }
            },
            {
                "box": {
                    "id": "obj-33",
                    "maxclass": "message",
                    "numinlets": 2,
                    "numoutlets": 1,
                    "outlettype": [ "" ],
                    "patching_rect": [ 580.0, 179.0, 93.0, 22.0 ],
                    "text": "refresh_params"
                }
            },
            {
                "box": {
                    "id": "obj-30",
                    "maxclass": "message",
                    "numinlets": 2,
                    "numoutlets": 1,
                    "outlettype": [ "" ],
                    "patching_rect": [ 358.5, 109.0, 161.0, 22.0 ],
                    "text": "connect http://localhost:9010"
                }
            },
            {
                "box": {
                    "id": "obj-24",
                    "maxclass": "message",
                    "numinlets": 2,
                    "numoutlets": 1,
                    "outlettype": [ "" ],
                    "patching_rect": [ 100.0, 60.0, 29.5, 22.0 ],
                    "text": "api"
                }
            },
            {
                "box": {
                    "id": "obj-1",
                    "maxclass": "newobj",
                    "numinlets": 3,
                    "numoutlets": 3,
                    "outlettype": [ "", "", "" ],
                    "patching_rect": [ 419.0, 339.0, 113.0, 22.0 ],
                    "text": "route running stderr"
                }
            },
            {
                "box": {
                    "bgmode": 0,
                    "border": 0,
                    "clickthrough": 0,
                    "enablehscroll": 0,
                    "enablevscroll": 0,
                    "id": "obj-6",
                    "lockeddragscroll": 0,
                    "lockedsize": 0,
                    "maxclass": "bpatcher",
                    "name": "n4m.monitor.maxpat",
                    "numinlets": 1,
                    "numoutlets": 1,
                    "offset": [ 0.0, 0.0 ],
                    "outlettype": [ "bang" ],
                    "patching_rect": [ 709.0, 401.0, 400.0, 220.0 ],
                    "viewvisibility": 1
                }
            },
            {
                "box": {
                    "id": "obj-28",
                    "maxclass": "message",
                    "numinlets": 2,
                    "numoutlets": 1,
                    "outlettype": [ "" ],
                    "patching_rect": [ 213.0, 60.0, 65.0, 22.0 ],
                    "text": "script stop"
                }
            },
            {
                "box": {
                    "id": "obj-15",
                    "maxclass": "newobj",
                    "numinlets": 1,
                    "numoutlets": 0,
                    "patching_rect": [ 419.0, 414.0, 117.0, 22.0 ],
                    "text": "print maxnode-basic"
                }
            },
            {
                "box": {
                    "id": "obj-12",
                    "maxclass": "message",
                    "numinlets": 2,
                    "numoutlets": 1,
                    "outlettype": [ "" ],
                    "patching_rect": [ 60.0, 212.0, 66.0, 22.0 ],
                    "text": "script start"
                }
            },
            {
                "box": {
                    "color": [ 0.250980392156863, 0.203921568627451, 0.937254901960784, 1.0 ],
                    "id": "obj-10",
                    "maxclass": "newobj",
                    "numinlets": 1,
                    "numoutlets": 2,
                    "outlettype": [ "", "" ],
                    "patching_rect": [ 338.0, 298.0, 650.0, 22.0 ],
                    "saved_object_attributes": {
                        "args": [ "url=http://localhost:5678", "update_mode=true", "autoconnect=true" ],
                        "autostart": 1,
                        "defer": 0,
                        "watch": 1
                    },
                    "text": "node.script oscquery.client @args url=http://localhost:5678 update_mode=true autoconnect=true @autostart 1 @watch 1",
                    "textfile": {
                        "filename": "oscquery.client.js",
                        "flags": 0,
                        "embed": 0,
                        "autowatch": 1
                    }
                }
            }
        ],
        "lines": [
            {
                "patchline": {
                    "destination": [ "obj-15", 0 ],
                    "source": [ "obj-1", 0 ]
                }
            },
            {
                "patchline": {
                    "destination": [ "obj-19", 1 ],
                    "order": 0,
                    "source": [ "obj-1", 1 ]
                }
            },
            {
                "patchline": {
                    "destination": [ "obj-25", 0 ],
                    "order": 1,
                    "source": [ "obj-1", 1 ]
                }
            },
            {
                "patchline": {
                    "destination": [ "obj-6", 0 ],
                    "source": [ "obj-1", 2 ]
                }
            },
            {
                "patchline": {
                    "destination": [ "obj-1", 0 ],
                    "source": [ "obj-10", 1 ]
                }
            },
            {
                "patchline": {
                    "destination": [ "obj-40", 0 ],
                    "source": [ "obj-10", 0 ]
                }
            },
            {
                "patchline": {
                    "destination": [ "obj-31", 0 ],
                    "source": [ "obj-11", 0 ]
                }
            },
            {
                "patchline": {
                    "destination": [ "obj-10", 0 ],
                    "source": [ "obj-12", 0 ]
                }
            },
            {
                "patchline": {
                    "destination": [ "obj-32", 0 ],
                    "source": [ "obj-13", 0 ]
                }
            },
            {
                "patchline": {
                    "destination": [ "obj-10", 0 ],
                    "source": [ "obj-14", 0 ]
                }
            },
            {
                "patchline": {
                    "destination": [ "obj-10", 0 ],
                    "source": [ "obj-16", 0 ]
                }
            },
            {
                "patchline": {
                    "destination": [ "obj-41", 0 ],
                    "order": 1,
                    "source": [ "obj-18", 0 ]
                }
            },
            {
                "patchline": {
                    "destination": [ "obj-48", 0 ],
                    "order": 0,
                    "source": [ "obj-18", 0 ]
                }
            },
            {
                "patchline": {
                    "destination": [ "obj-51", 0 ],
                    "order": 2,
                    "source": [ "obj-18", 0 ]
                }
            },
            {
                "patchline": {
                    "destination": [ "obj-8", 0 ],
                    "order": 3,
                    "source": [ "obj-18", 0 ]
                }
            },
            {
                "patchline": {
                    "destination": [ "obj-10", 0 ],
                    "source": [ "obj-2", 0 ]
                }
            },
            {
                "patchline": {
                    "destination": [ "obj-11", 0 ],
                    "source": [ "obj-20", 0 ]
                }
            },
            {
                "patchline": {
                    "destination": [ "obj-10", 0 ],
                    "source": [ "obj-24", 0 ]
                }
            },
            {
                "patchline": {
                    "destination": [ "obj-20", 0 ],
                    "order": 0,
                    "source": [ "obj-26", 0 ]
                }
            },
            {
                "patchline": {
                    "destination": [ "obj-27", 0 ],
                    "order": 1,
                    "source": [ "obj-26", 0 ]
                }
            },
            {
                "patchline": {
                    "destination": [ "obj-18", 0 ],
                    "source": [ "obj-27", 0 ]
                }
            },
            {
                "patchline": {
                    "destination": [ "obj-10", 0 ],
                    "source": [ "obj-28", 0 ]
                }
            },
            {
                "patchline": {
                    "destination": [ "obj-12", 0 ],
                    "source": [ "obj-3", 0 ]
                }
            },
            {
                "patchline": {
                    "destination": [ "obj-10", 0 ],
                    "source": [ "obj-30", 0 ]
                }
            },
            {
                "patchline": {
                    "destination": [ "obj-27", 0 ],
                    "source": [ "obj-31", 0 ]
                }
            },
            {
                "patchline": {
                    "destination": [ "obj-10", 0 ],
                    "source": [ "obj-32", 0 ]
                }
            },
            {
                "patchline": {
                    "destination": [ "obj-10", 0 ],
                    "source": [ "obj-33", 0 ]
                }
            },
            {
                "patchline": {
                    "destination": [ "obj-10", 0 ],
                    "source": [ "obj-36", 0 ]
                }
            },
            {
                "patchline": {
                    "destination": [ "obj-10", 0 ],
                    "source": [ "obj-38", 0 ]
                }
            },
            {
                "patchline": {
                    "destination": [ "obj-10", 0 ],
                    "source": [ "obj-4", 0 ]
                }
            },
            {
                "patchline": {
                    "destination": [ "obj-42", 0 ],
                    "source": [ "obj-40", 2 ]
                }
            },
            {
                "patchline": {
                    "destination": [ "obj-43", 0 ],
                    "source": [ "obj-40", 1 ]
                }
            },
            {
                "patchline": {
                    "destination": [ "obj-44", 0 ],
                    "source": [ "obj-40", 5 ]
                }
            },
            {
                "patchline": {
                    "destination": [ "obj-45", 0 ],
                    "source": [ "obj-40", 3 ]
                }
            },
            {
                "patchline": {
                    "destination": [ "obj-47", 0 ],
                    "source": [ "obj-40", 0 ]
                }
            },
            {
                "patchline": {
                    "destination": [ "obj-56", 0 ],
                    "source": [ "obj-40", 4 ]
                }
            },
            {
                "patchline": {
                    "destination": [ "obj-10", 0 ],
                    "source": [ "obj-5", 0 ]
                }
            },
            {
                "patchline": {
                    "destination": [ "obj-84", 0 ],
                    "source": [ "obj-50", 0 ]
                }
            },
            {
                "patchline": {
                    "destination": [ "obj-10", 0 ],
                    "source": [ "obj-7", 0 ]
                }
            },
            {
                "patchline": {
                    "destination": [ "obj-21", 0 ],
                    "source": [ "obj-8", 0 ]
                }
            },
            {
                "patchline": {
                    "destination": [ "obj-87", 0 ],
                    "source": [ "obj-84", 0 ]
                }
            },
            {
                "patchline": {
                    "destination": [ "obj-17", 0 ],
                    "order": 0,
                    "source": [ "obj-87", 0 ]
                }
            },
            {
                "patchline": {
                    "destination": [ "obj-90", 0 ],
                    "source": [ "obj-87", 1 ]
                }
            },
            {
                "patchline": {
                    "destination": [ "obj-92", 0 ],
                    "source": [ "obj-87", 2 ]
                }
            },
            {
                "patchline": {
                    "destination": [ "obj-93", 0 ],
                    "order": 1,
                    "source": [ "obj-87", 0 ]
                }
            },
            {
                "patchline": {
                    "destination": [ "obj-98", 0 ],
                    "source": [ "obj-87", 3 ]
                }
            },
            {
                "patchline": {
                    "destination": [ "obj-21", 0 ],
                    "source": [ "obj-88", 0 ]
                }
            },
            {
                "patchline": {
                    "destination": [ "obj-91", 0 ],
                    "source": [ "obj-89", 0 ]
                }
            },
            {
                "patchline": {
                    "destination": [ "obj-10", 0 ],
                    "source": [ "obj-9", 0 ]
                }
            },
            {
                "patchline": {
                    "destination": [ "obj-88", 0 ],
                    "source": [ "obj-91", 0 ]
                }
            },
            {
                "patchline": {
                    "destination": [ "obj-10", 0 ],
                    "source": [ "obj-95", 0 ]
                }
            },
            {
                "patchline": {
                    "destination": [ "obj-95", 0 ],
                    "source": [ "obj-96", 0 ]
                }
            }
        ],
        "parameters": {
            "obj-49": [ "live.menu", "live.menu", 0 ],
            "obj-53": [ "live.numbox", "live.numbox", 0 ],
            "obj-61": [ "live.button", "live.button", 0 ],
            "obj-64": [ "live.dial", "live.dial", 0 ],
            "obj-65": [ "live.text", "live.text", 0 ],
            "obj-67": [ "live.slider", "live.slider", 0 ],
            "obj-68": [ "live.toggle", "live.toggle", 0 ],
            "obj-74": [ "live.tab", "live.tab", 0 ],
            "parameterbanks": {
                "0": {
                    "index": 0,
                    "name": "",
                    "parameters": [ "-", "-", "-", "-", "-", "-", "-", "-" ],
                    "buttons": [ "-", "-", "-", "-", "-", "-", "-", "-" ]
                }
            },
            "inherited_shortname": 1
        },
        "autosave": 0
    }
}